<svg xmlns="http://www.w3.org/2000/svg" style="display: none;">
  <!-- File icon -->
  <symbol id="icon-file" viewBox="0 0 16 16">
    <path d="M14.5 13.5V5.41a1 1 0 0 0-.3-.7L9.8.29A1 1 0 0 0 9.08 0H1.5v13.5A2.5 2.5 0 0 0 4 16h8a2.5 2.5 0 0 0 2.5-2.5m-1.5 0v-7H8v-5H3v12a1 1 0 0 0 1 1h8a1 1 0 0 0 1-1M9.5 5V2.12L12.38 5zM5.13 5h-.62v1.25h2.12V5zm-.62 3h7.12v1.25H4.5zm.62 3h-.62v1.25h7.12V11z" clip-rule="evenodd" fill="currentColor" fill-rule="evenodd"/>
  </symbol>
  
  <!-- Window icon -->
  <symbol id="icon-window" viewBox="0 0 16 16">
    <path fill-rule="evenodd" clip-rule="evenodd" d="M1.5 2.5h13v10a1 1 0 0 1-1 1h-11a1 1 0 0 1-1-1zM0 1h16v11.5a2.5 2.5 0 0 1-2.5 2.5h-11A2.5 2.5 0 0 1 0 12.5zm3.75 4.5a.75.75 0 1 0 0-1.5.75.75 0 0 0 0 1.5M7 4.75a.75.75 0 1 1-1.5 0 .75.75 0 0 1 1.5 0m1.75.75a.75.75 0 1 0 0-1.5.75.75 0 0 0 0 1.5" fill="currentColor"/>
  </symbol>
  
  <!-- Search icon -->
  <symbol id="icon-search" viewBox="0 0 20 20" fill="none">
    <path
      d="m19 19-4-4m0-7A7 7 0 1 1 1 8a7 7 0 0 1 14 0Z"
      stroke="currentColor"
      strokeWidth="2"
      strokeLinecap="round"
      strokeLinejoin="round"
    />
  </symbol>
  
  <!-- Filter icon -->
  <symbol id="icon-filter" viewBox="0 0 20 20" fill="currentColor">
    <path d="M3 5a1 1 0 0 1 1-1h12a1 1 0 0 1 .8 1.6l-4.2 5.6V16a1 1 0 0 1-1.447.894l-2-1A1 1 0 0 1 8 15v-3.8L3.2 5.6A1 1 0 0 1 3 5z" />
  </symbol>
  
  <!-- Chevron down icon -->
  <symbol id="icon-chevron-down" viewBox="0 0 10 6" fill="none">
    <path d="m1 1 4 4 4-4" stroke="currentColor" strokeWidth="2" strokeLinecap="round" strokeLinejoin="round" />
  </symbol>

  <!-- Add icon -->
  <symbol id="icon-add" viewBox="0 0 24 24" fill="none">
    <path stroke="currentColor" strokeLinecap="round" strokeLinejoin="round" strokeWidth="2" d="M12 7.757v8.486M7.757 12h8.486M21 12a9 9 0 1 1-18 0 9 9 0 0 1 18 0Z"/>
  </symbol>

  <!-- Edit icon -->
  <symbol id="icon-edit" viewBox="0 0 24 24" fill="none">
    <path stroke="currentColor" strokeLinecap="round" strokeLinejoin="round" strokeWidth="2" d="m14.304 4.844 2.852 2.852M7 7H4a1 1 0 0 0-1 1v10a1 1 0 0 0 1 1h11a1 1 0 0 0 1-1v-4.5m2.409-9.91a2.017 2.017 0 0 1 0 2.853l-6.844 6.844L8 14l.713-3.565 6.844-6.844a2.015 2.015 0 0 1 2.852 0Z"/>
  </symbol>

  <!-- Delete icon -->
  <symbol id="icon-delete" viewBox="0 0 24 24" fill="none">
     <path stroke="currentColor" strokeLinecap="round" strokeLinejoin="round" strokeWidth="2" d="M5 7h14m-9 3v8m4-8v8M10 3h4a1 1 0 0 1 1 1v3H9V4a1 1 0 0 1 1-1ZM6 7h12v13a1 1 0 0 1-1 1H7a1 1 0 0 1-1-1V7Z"/>
  </symbol>
  
</svg>
