<svg width="32" height="32" viewBox="0 0 32 32" fill="none" xmlns="http://www.w3.org/2000/svg">
<rect width="32" height="32" rx="16" fill="#F3F4F6"/>
<path d="M7.00426 21V10.8182H10.8224C11.6046 10.8182 12.2609 10.964 12.7912 11.2557C13.3248 11.5473 13.7275 11.9484 13.9993 12.4588C14.2744 12.9659 14.4119 13.5426 14.4119 14.1889C14.4119 14.8419 14.2744 15.4219 13.9993 15.929C13.7242 16.4361 13.3182 16.8355 12.7812 17.1271C12.2443 17.4155 11.5831 17.5597 10.7976 17.5597H8.26705V16.0433H10.549C11.0064 16.0433 11.3809 15.9638 11.6726 15.8047C11.9643 15.6456 12.1797 15.4268 12.3189 15.1484C12.4614 14.87 12.5327 14.5502 12.5327 14.1889C12.5327 13.8277 12.4614 13.5095 12.3189 13.2344C12.1797 12.9593 11.9626 12.7455 11.6676 12.593C11.3759 12.4373 10.9998 12.3594 10.5391 12.3594H8.84872V21H7.00426ZM16.014 21V10.8182H17.8585V15.1286H22.5765V10.8182H24.426V21H22.5765V16.6747H17.8585V21H16.014Z" fill="#4A5565"/>
</svg>
